<svg width="158" height="159" viewBox="0 0 158 159" fill="none" xmlns="http://www.w3.org/2000/svg">
<path d="M106.246 65.4037C106.564 64.0601 105.733 62.7131 104.389 62.395L82.4945 57.2114C81.1509 56.8933 79.8039 57.7246 79.4858 59.0682C79.1677 60.4118 79.999 61.7588 81.3426 62.0769L100.805 66.6846L96.1969 86.1466C95.8788 87.4901 96.7101 88.8372 98.0537 89.1553C99.3973 89.4734 100.744 88.642 101.062 87.2985L106.246 65.4037ZM58.2778 95.8672L105.126 66.9552L102.5 62.7003L55.6519 91.6123L58.2778 95.8672Z" fill="black"/>
<path d="M50.0353 32.1959C75.7551 16.3233 109.59 24.4395 125.595 50.3742C141.6 76.309 133.684 110.191 107.965 126.064C82.2449 141.936 48.4105 133.82 32.4051 107.885C16.3998 81.9505 24.3155 48.0686 50.0353 32.1959Z" stroke="black" stroke-width="5"/>
</svg>
