<svg width="136" height="136" viewBox="0 0 136 136" fill="none" xmlns="http://www.w3.org/2000/svg">
<path d="M91.8682 56.1648C92.1863 54.8213 91.355 53.4742 90.0114 53.1561L68.1167 47.9725C66.7731 47.6544 65.4261 48.4857 65.108 49.8293C64.7899 51.1729 65.6212 52.5199 66.9648 52.838L86.4268 57.4457L81.8191 76.9077C81.501 78.2513 82.3323 79.5983 83.6759 79.9164C85.0195 80.2345 86.3665 79.4032 86.6846 78.0596L91.8682 56.1648ZM50.2705 82.6969L90.7484 57.7164L88.1225 53.4614L47.6446 78.442L50.2705 82.6969Z" fill="black"/>
<path d="M43.4101 28.1072C65.4906 14.4805 94.3927 21.2856 107.97 43.2855C121.547 65.2854 114.671 94.1706 92.59 107.797C70.5095 121.424 41.6075 114.619 28.0305 92.6191C14.4535 70.6192 21.3295 41.734 43.4101 28.1072Z" stroke="black" stroke-width="5"/>
</svg>
